<svg width="52" height="43" viewBox="0 0 52 43" version="1.1" xmlns="http://www.w3.org/2000/svg" xmlns:xlink="http://www.w3.org/1999/xlink">
<title>Group 3</title>
<desc>Created using Figma</desc>
<g id="Canvas" transform="translate(-252 75)">
<g id="Group 3">
<g id="Group 2">
<g id="Rectangle">
<use xlink:href="#path0_fill" transform="translate(252 -75)" fill="#F3F3F3"/>
</g>
<g id="Rectangle">
<use xlink:href="#path0_fill" transform="translate(280 -75)" fill="#F3F3F3"/>
</g>
</g>
</g>
</g>
<defs>
<path id="path0_fill" d="M 0 16C 0 7.16344 7.16344 0 16 0L 22 0C 23.1046 0 24 0.895431 24 2L 24 7.5C 24 8.60457 23.1046 9.5 22 9.5L 16 9.5C 12.134 9.5 9 12.634 9 16.5L 9 19C 9 19.5523 9.44772 20 10 20L 19 20C 21.7614 20 24 22.2386 24 25L 24 38C 24 40.7614 21.7614 43 19 43L 5 43C 2.23858 43 0 40.7614 0 38L 0 16Z"/>
</defs>
</svg>
